Format : AVI
Format/Info : Audio Video Interleave
File size : 350 MiB
Duration : 42mn 40s
Overall bit rate : 1 146 Kbps
Writing application : transcode-1.0.6

Video
ID : 0
Format : MPEG-4 Visual
Format profile : AdvancedSimple@L5
Format settings, BVOP : Yes
Format settings, QPel : No
Format settings, GMC : No warppoints
Format settings, Matrix : Default (H.263)
Codec ID : XVID
Codec ID/Hint : XviD
Duration : 42mn 40s
Bit rate : 1 004 Kbps
Width : 624 pixels
Height : 352 pixels
Display aspect ratio : 16:9
Frame rate : 23.976 fps
Resolution : 24 bits
Colorimetry : 4:2:0
Scan type : Progressive
Bits/(Pixel*Frame) : 0.191
Stream size : 307 MiB (88%)
Writing library : XviD 1.2.1 (UTC 2008-12-04)

Audio
ID : 1
Format : MPEG Audio
Format version : Version 1
Format profile : Layer 3
Codec ID : 55
Codec ID/Hint : MP3
Duration : 42mn 40s
Bit rate mode : Variable
Bit rate : 129 Kbps
Nominal bit rate : 128 Kbps
Channel(s) : 2 channels
Sampling rate : 48.0 KHz
Resolution : 16 bits
Stream size : 39.3 MiB (11%)
Alignment : Aligned on interleaves
Interleave, duration : 24 ms (0.58 video frame)
Writing library : LAME3.90.
Encoding settings : -m j -V 4 -q 2 -lowpass 17.6 --abr 128

|-------| |---------------| |-------|
| | | | | |
| | | | | |
| | | | | |
| | | | | |
| | | |---| | | |
| | | | | | | |
| |________ | | | | | |________
| | | |---| | | |
| | | | | |
| | | | | |
| | | | | |
|________________| |_______________| |________________|
<o> o o> \o/ <o o \o
| <|> <| | \ X |.
/< /< /< / \ >\ >\ >\
LOL
PRESENTS
ììììììììììììììììììììììììììììììììììììììììììììììììììììì
8 8
8 CSI Miami 8
8 S09E07 8
8 8
8 8
ììììììììììììììììììììììììììììììììììììììììììììììììììììì
ììììììììììììììììììììììììì
8 General Information 8
ììììììììììììììììììììììììììììììììììììììììììììììììììììììììììììììììììììììììì
8 8
8 LOL Release : 11/21/2010 8
8 Link : http://www.tvrage.com/CSI_Miami 8
8 8
ììììììììììììììììììììììììììììììììììììììììììììììììììììììììììììììììììììììììì
ììììììììììììììììììììììììì
8 Encode Information 8
ììììììììììììììììììììììììììììììììììììììììììììììììììììììììììììììììììììììììì
8 8
8 Video : XviD 8
8 Audio : MP3 2ch 48khz 8
8 Aspect Ratio : 16:9 8
8 Resolution : 624x352 8
8 Frame Rate : 23.97 fps 8
8 RAR Size : 350MB: 25x15MB 8
8 8
ììììììììììììììììììììììììììììììììììììììììììììììììììììììììììììììììììììììììì
ììììììììììììììììììììììììì
8 Greets 8
ììììììììììììììììììììììììììììììììììììììììììììììììììììììììììììììììììììììììì
8 8
8 MDX FFN TV 8
8 8
ììììììììììììììììììììììììììììììììììììììììììììììììììììììììììììììììììììììììì
ììììììììììììììììììììììììì
8 News 8
ììììììììììììììììììììììììììììììììììììììììììììììììììììììììììììììììììììììììì
8 8
8 Have anything useful (and legal?) allegianceadvertising@hush.com 8
8 8
ììììììììììììììììììììììììììììììììììììììììììììììììììììììììììììììììììììììììì
[unfo-maker 2.1]




.__________________________.-..__.-...-..___.-..________________________///.
|.:.MisterX & MisterY.:.:.. \/ // | ||/| ||::.::.:::.Site scripts V2.0:|
`--_______________/---------___//--|_||//|_||---------_________________/'

screens
 
http://img94.imageshack.us/img94/9867/csimiamis09e07hdtvxvidl.jpg 
http://img16.imageshack.us/img16/9867/csimiamis09e07hdtvxvidl.jpg